<?xml version="1.0" encoding="utf-8"?>
<!-- Generator: Adobe Illustrator 19.0.0, SVG Export Plug-In . SVG Version: 6.00 Build 0)  -->
<svg version="1.1" id="Layer_1" xmlns="http://www.w3.org/2000/svg" xmlns:xlink="http://www.w3.org/1999/xlink" x="0px" y="0px"
	 viewBox="0 0 96 96" style="enable-background:new 0 0 96 96;" xml:space="preserve">
<style type="text/css">
	.st0{fill:#333333;}
</style>
<g id="XMLID_2_">
	<path id="XMLID_4_" class="st0" d="M75.5,36.5c0,0.5-0.2,0.9-0.6,1.3L49.3,63.5C48.9,63.9,48.5,64,48,64s-0.9-0.2-1.3-0.6
		L21.1,37.8c-0.4-0.4-0.6-0.8-0.6-1.3s0.2-0.9,0.6-1.3l2.8-2.8c0.4-0.4,0.8-0.6,1.3-0.6s0.9,0.2,1.3,0.6L48,54.2l21.7-21.7
		c0.4-0.4,0.8-0.6,1.3-0.6c0.5,0,0.9,0.2,1.3,0.6l2.8,2.8C75.3,35.6,75.5,36.1,75.5,36.5z"/>
</g>
</svg>
